# xmcd
#
# Track frame offsets:
#	182
#	14550
#	29960
#	43437
#	57595
#	72940
#	86360
#	100422
#	113170
#	128787
#	141365
#	153992
#	164825
#	183930
#
# Disc length: 2663 seconds
#
# Revision: 3
# Processed by: cddbd v1.5.2PL0 Copyright (c) Steve Scherf et al.
# Submitted via: audiograbber 1.83.01
#
DISCID=d40a650e
DTITLE=Tom Jones - Green Green Grass Of Home
DYEAR=1966
DGENRE=Pop
TTITLE0=Riders In The Sky
TTITLE1=He'll Have To Go
TTITLE2=Funny Familiar Forgotten Feelings
TTITLE3=Sixteen Tons
TTITLE4=Two Brothers
TTITLE5=My Mother's Eyes
TTITLE6=Green Green Grass Of Home
TTITLE7=Ring Of Fire
TTITLE8=Field Of Yellow Daisies
TTITLE9=Wish I Could Say No To You
TTITLE10=All I Get From You Is Heartache
TTITLE11=Mohair Sam
TTITLE12=Cool Water
TTITLE13=Detroit City
EXTD=British release, not the American
EXTT0=
EXTT1=
EXTT2=
EXTT3=
EXTT4=
EXTT5=
EXTT6=
EXTT7=
EXTT8=
EXTT9=
EXTT10=
EXTT11=
EXTT12=
EXTT13=
PLAYORDER=
